<mxfile host="app.diagrams.net" modified="2023-07-03T21:42:22.748Z" agent="Mozilla/5.0 (X11; Ubuntu; Linux x86_64; rv:109.0) Gecko/20100101 Firefox/114.0" etag="uc4Co7pd9ino_m6jfTdN" version="21.5.2" type="device">
  <diagram name="Page-1" id="2c4490ee-f0b8-94ab-5012-d5dc3445f7a3">
    <mxGraphModel dx="3692" dy="1648" grid="1" gridSize="10" guides="1" tooltips="1" connect="0" arrows="1" fold="1" page="1" pageScale="1.5" pageWidth="1169" pageHeight="826" background="none" math="0" shadow="0">
      <root>
        <mxCell id="0" style=";html=1;" />
        <mxCell id="1" style=";html=1;" parent="0" />
        <mxCell id="7a8b956e7d50b54d-187" value="" style="align=left;strokeColor=#CCCCCC;html=1;" parent="1" vertex="1">
          <mxGeometry x="280" y="640" width="120" height="20" as="geometry" />
        </mxCell>
        <mxCell id="67c90442a009f359-279" value="Mar" style="strokeWidth=1;fontStyle=0;html=1;" parent="1" vertex="1">
          <mxGeometry x="400" y="439" width="120" height="20" as="geometry" />
        </mxCell>
        <mxCell id="7a8b956e7d50b54d-104" value="Apr" style="strokeWidth=1;fontStyle=0;html=1;" parent="1" vertex="1">
          <mxGeometry x="520" y="439" width="120" height="20" as="geometry" />
        </mxCell>
        <mxCell id="7a8b956e7d50b54d-109" value="May" style="strokeWidth=1;fontStyle=0;html=1;" parent="1" vertex="1">
          <mxGeometry x="690" y="439" width="550" height="20" as="geometry" />
        </mxCell>
        <mxCell id="7a8b956e7d50b54d-145" value="Feb" style="strokeWidth=1;fontStyle=0;html=1;" parent="1" vertex="1">
          <mxGeometry x="280" y="439" width="120" height="20" as="geometry" />
        </mxCell>
        <mxCell id="7a8b956e7d50b54d-150" value="" style="align=left;strokeColor=#CCCCCC;html=1;" parent="1" vertex="1">
          <mxGeometry x="160" y="479" width="120" height="20" as="geometry" />
        </mxCell>
        <mxCell id="7a8b956e7d50b54d-151" value="April" style="strokeWidth=1;fontStyle=0;html=1;" parent="1" vertex="1">
          <mxGeometry x="210" y="439" width="480" height="20" as="geometry" />
        </mxCell>
        <mxCell id="7a8b956e7d50b54d-162" value="" style="align=left;strokeColor=#CCCCCC;html=1;verticalAlign=middle;" parent="1" vertex="1">
          <mxGeometry x="160" y="499" width="120" height="20" as="geometry" />
        </mxCell>
        <mxCell id="7a8b956e7d50b54d-163" value="" style="align=left;strokeColor=#CCCCCC;html=1;" parent="1" vertex="1">
          <mxGeometry x="160" y="519" width="120" height="20" as="geometry" />
        </mxCell>
        <mxCell id="7a8b956e7d50b54d-164" value="" style="align=left;strokeColor=#CCCCCC;html=1;" parent="1" vertex="1">
          <mxGeometry x="160" y="539" width="120" height="20" as="geometry" />
        </mxCell>
        <mxCell id="7a8b956e7d50b54d-165" value="" style="align=left;strokeColor=#CCCCCC;html=1;" parent="1" vertex="1">
          <mxGeometry x="160" y="559" width="120" height="20" as="geometry" />
        </mxCell>
        <mxCell id="7a8b956e7d50b54d-166" value="" style="align=left;strokeColor=#CCCCCC;html=1;" parent="1" vertex="1">
          <mxGeometry x="160" y="579" width="120" height="20" as="geometry" />
        </mxCell>
        <mxCell id="7a8b956e7d50b54d-167" value="" style="align=left;strokeColor=#CCCCCC;html=1;" parent="1" vertex="1">
          <mxGeometry x="160" y="599" width="120" height="20" as="geometry" />
        </mxCell>
        <mxCell id="7a8b956e7d50b54d-168" value="" style="align=left;strokeColor=#CCCCCC;html=1;" parent="1" vertex="1">
          <mxGeometry x="160" y="619" width="120" height="20" as="geometry" />
        </mxCell>
        <mxCell id="7a8b956e7d50b54d-177" value="" style="align=left;strokeColor=#CCCCCC;html=1;" parent="1" vertex="1">
          <mxGeometry x="280" y="479" width="120" height="20" as="geometry" />
        </mxCell>
        <mxCell id="7a8b956e7d50b54d-178" value="" style="align=left;strokeColor=#CCCCCC;html=1;" parent="1" vertex="1">
          <mxGeometry x="310" y="459" width="120" height="20" as="geometry" />
        </mxCell>
        <mxCell id="7a8b956e7d50b54d-179" value="" style="align=left;strokeColor=#CCCCCC;html=1;" parent="1" vertex="1">
          <mxGeometry x="280" y="519" width="120" height="20" as="geometry" />
        </mxCell>
        <mxCell id="7a8b956e7d50b54d-180" value="" style="align=left;strokeColor=#CCCCCC;html=1;" parent="1" vertex="1">
          <mxGeometry x="280" y="539" width="120" height="20" as="geometry" />
        </mxCell>
        <mxCell id="7a8b956e7d50b54d-181" value="" style="align=left;strokeColor=#CCCCCC;html=1;" parent="1" vertex="1">
          <mxGeometry x="280" y="559" width="120" height="20" as="geometry" />
        </mxCell>
        <mxCell id="7a8b956e7d50b54d-182" value="" style="align=left;strokeColor=#CCCCCC;html=1;" parent="1" vertex="1">
          <mxGeometry x="280" y="579" width="120" height="20" as="geometry" />
        </mxCell>
        <mxCell id="7a8b956e7d50b54d-183" value="" style="align=left;strokeColor=#CCCCCC;html=1;" parent="1" vertex="1">
          <mxGeometry x="280" y="599" width="120" height="20" as="geometry" />
        </mxCell>
        <mxCell id="7a8b956e7d50b54d-184" value="" style="align=left;strokeColor=#CCCCCC;html=1;" parent="1" vertex="1">
          <mxGeometry x="280" y="619" width="120" height="20" as="geometry" />
        </mxCell>
        <mxCell id="7a8b956e7d50b54d-185" value="&amp;nbsp;tut1" style="align=left;strokeColor=#b85450;html=1;fillColor=#f8cecc;" parent="1" vertex="1">
          <mxGeometry x="370" y="640" width="30" height="20" as="geometry" />
        </mxCell>
        <mxCell id="7a8b956e7d50b54d-186" value="" style="align=left;strokeColor=#CCCCCC;html=1;" parent="1" vertex="1">
          <mxGeometry x="280" y="659" width="120" height="20" as="geometry" />
        </mxCell>
        <mxCell id="7a8b956e7d50b54d-202" value="" style="align=left;strokeColor=#CCCCCC;html=1;" parent="1" vertex="1">
          <mxGeometry x="400" y="659" width="120" height="20" as="geometry" />
        </mxCell>
        <mxCell id="7a8b956e7d50b54d-203" value="" style="align=left;strokeColor=#CCCCCC;html=1;" parent="1" vertex="1">
          <mxGeometry x="400" y="679" width="120" height="20" as="geometry" />
        </mxCell>
        <mxCell id="7a8b956e7d50b54d-204" value="" style="align=left;strokeColor=#CCCCCC;html=1;" parent="1" vertex="1">
          <mxGeometry x="400" y="699" width="120" height="20" as="geometry" />
        </mxCell>
        <mxCell id="7a8b956e7d50b54d-205" value="" style="align=left;strokeColor=#CCCCCC;html=1;" parent="1" vertex="1">
          <mxGeometry x="400" y="719" width="120" height="20" as="geometry" />
        </mxCell>
        <mxCell id="7a8b956e7d50b54d-206" value="" style="align=left;strokeColor=#CCCCCC;html=1;" parent="1" vertex="1">
          <mxGeometry x="400" y="739" width="120" height="20" as="geometry" />
        </mxCell>
        <mxCell id="7a8b956e7d50b54d-207" value="" style="align=left;strokeColor=#CCCCCC;html=1;" parent="1" vertex="1">
          <mxGeometry x="400" y="680" width="120" height="20" as="geometry" />
        </mxCell>
        <mxCell id="7a8b956e7d50b54d-208" value="" style="align=left;strokeColor=#CCCCCC;html=1;" parent="1" vertex="1">
          <mxGeometry x="400" y="779" width="120" height="20" as="geometry" />
        </mxCell>
        <mxCell id="7a8b956e7d50b54d-219" value="&amp;nbsp;tut2" style="align=left;strokeColor=#b85450;html=1;fillColor=#f8cecc;" parent="1" vertex="1">
          <mxGeometry x="580" y="700" width="30" height="20" as="geometry" />
        </mxCell>
        <mxCell id="7a8b956e7d50b54d-221" value="" style="align=left;strokeColor=#CCCCCC;html=1;" parent="1" vertex="1">
          <mxGeometry x="520" y="719" width="120" height="20" as="geometry" />
        </mxCell>
        <mxCell id="7a8b956e7d50b54d-222" value="" style="align=left;strokeColor=#CCCCCC;html=1;" parent="1" vertex="1">
          <mxGeometry x="520" y="739" width="120" height="20" as="geometry" />
        </mxCell>
        <mxCell id="7a8b956e7d50b54d-223" value="" style="align=left;strokeColor=#CCCCCC;html=1;" parent="1" vertex="1">
          <mxGeometry x="520" y="759" width="120" height="20" as="geometry" />
        </mxCell>
        <mxCell id="7a8b956e7d50b54d-224" value="" style="align=left;strokeColor=#CCCCCC;html=1;" parent="1" vertex="1">
          <mxGeometry x="520" y="779" width="120" height="20" as="geometry" />
        </mxCell>
        <mxCell id="7a8b956e7d50b54d-239" value="" style="align=left;strokeColor=#CCCCCC;html=1;" parent="1" vertex="1">
          <mxGeometry x="640" y="759" width="120" height="20" as="geometry" />
        </mxCell>
        <mxCell id="7a8b956e7d50b54d-240" value="" style="align=left;strokeColor=#CCCCCC;html=1;" parent="1" vertex="1">
          <mxGeometry x="640" y="779" width="120" height="20" as="geometry" />
        </mxCell>
        <mxCell id="7a8b956e7d50b54d-256" value="" style="align=left;strokeColor=#CCCCCC;html=1;" parent="1" vertex="1">
          <mxGeometry x="760" y="779" width="120" height="20" as="geometry" />
        </mxCell>
        <mxCell id="7a8b956e7d50b54d-305" value="" style="align=left;strokeColor=#CCCCCC;html=1;" parent="1" vertex="1">
          <mxGeometry x="1250" y="1150" width="120" height="20" as="geometry" />
        </mxCell>
        <mxCell id="7a8b956e7d50b54d-306" value="" style="align=left;strokeColor=#CCCCCC;html=1;" parent="1" vertex="1">
          <mxGeometry x="1250" y="1170" width="120" height="20" as="geometry" />
        </mxCell>
        <mxCell id="7a8b956e7d50b54d-307" value="" style="align=left;strokeColor=#CCCCCC;html=1;" parent="1" vertex="1">
          <mxGeometry x="1250" y="1190" width="120" height="20" as="geometry" />
        </mxCell>
        <mxCell id="7a8b956e7d50b54d-308" value="" style="align=left;strokeColor=#CCCCCC;html=1;" parent="1" vertex="1">
          <mxGeometry x="1250" y="1210" width="120" height="20" as="geometry" />
        </mxCell>
        <mxCell id="7a8b956e7d50b54d-309" value="" style="align=left;strokeColor=#CCCCCC;html=1;" parent="1" vertex="1">
          <mxGeometry x="1250" y="1230" width="120" height="20" as="geometry" />
        </mxCell>
        <mxCell id="7a8b956e7d50b54d-310" value="" style="align=left;strokeColor=#CCCCCC;html=1;" parent="1" vertex="1">
          <mxGeometry x="1250" y="1250" width="120" height="20" as="geometry" />
        </mxCell>
        <mxCell id="7a8b956e7d50b54d-330" value="" style="align=left;strokeColor=#CCCCCC;html=1;" parent="1" vertex="1">
          <mxGeometry x="1370" y="1330" width="120" height="20" as="geometry" />
        </mxCell>
        <mxCell id="7a8b956e7d50b54d-331" value="" style="align=left;strokeColor=#CCCCCC;html=1;" parent="1" vertex="1">
          <mxGeometry x="1370" y="1350" width="120" height="20" as="geometry" />
        </mxCell>
        <mxCell id="7a8b956e7d50b54d-332" value="" style="align=left;strokeColor=#CCCCCC;html=1;" parent="1" vertex="1">
          <mxGeometry x="1370" y="1370" width="120" height="20" as="geometry" />
        </mxCell>
        <mxCell id="7a8b956e7d50b54d-100" value="21" style="strokeWidth=1;fontStyle=0;html=1;" parent="1" vertex="1">
          <mxGeometry x="400" y="459" width="30" height="20" as="geometry" />
        </mxCell>
        <mxCell id="7a8b956e7d50b54d-101" value="22" style="strokeWidth=1;fontStyle=0;html=1;" parent="1" vertex="1">
          <mxGeometry x="430" y="459" width="30" height="20" as="geometry" />
        </mxCell>
        <mxCell id="7a8b956e7d50b54d-102" value="23" style="strokeWidth=1;fontStyle=0;html=1;" parent="1" vertex="1">
          <mxGeometry x="460" y="459" width="30" height="20" as="geometry" />
        </mxCell>
        <mxCell id="7a8b956e7d50b54d-103" value="24" style="strokeWidth=1;fontStyle=0;html=1;" parent="1" vertex="1">
          <mxGeometry x="490" y="459" width="30" height="20" as="geometry" />
        </mxCell>
        <mxCell id="7a8b956e7d50b54d-105" value="25" style="strokeWidth=1;fontStyle=0;html=1;" parent="1" vertex="1">
          <mxGeometry x="520" y="459" width="30" height="20" as="geometry" />
        </mxCell>
        <mxCell id="7a8b956e7d50b54d-106" value="26" style="strokeWidth=1;fontStyle=0;html=1;" parent="1" vertex="1">
          <mxGeometry x="550" y="459" width="30" height="20" as="geometry" />
        </mxCell>
        <mxCell id="7a8b956e7d50b54d-107" value="27" style="strokeWidth=1;fontStyle=0;html=1;" parent="1" vertex="1">
          <mxGeometry x="580" y="459" width="30" height="20" as="geometry" />
        </mxCell>
        <mxCell id="7a8b956e7d50b54d-108" value="28" style="strokeWidth=1;fontStyle=0;html=1;" parent="1" vertex="1">
          <mxGeometry x="610" y="459" width="30" height="20" as="geometry" />
        </mxCell>
        <mxCell id="7a8b956e7d50b54d-110" value="29" style="strokeWidth=1;fontStyle=0;html=1;" parent="1" vertex="1">
          <mxGeometry x="640" y="459" width="30" height="20" as="geometry" />
        </mxCell>
        <mxCell id="7a8b956e7d50b54d-111" value="30" style="strokeWidth=1;fontStyle=0;html=1;" parent="1" vertex="1">
          <mxGeometry x="670" y="459" width="30" height="20" as="geometry" />
        </mxCell>
        <mxCell id="7a8b956e7d50b54d-112" value="W1" style="strokeWidth=1;fontStyle=0;html=1;" parent="1" vertex="1">
          <mxGeometry x="690" y="459" width="180" height="20" as="geometry" />
        </mxCell>
        <mxCell id="7a8b956e7d50b54d-113" value="W2" style="strokeWidth=1;fontStyle=0;html=1;" parent="1" vertex="1">
          <mxGeometry x="870" y="459" width="150" height="20" as="geometry" />
        </mxCell>
        <mxCell id="7a8b956e7d50b54d-115" value="W3" style="strokeWidth=1;fontStyle=0;html=1;" parent="1" vertex="1">
          <mxGeometry x="1020" y="459" width="100" height="20" as="geometry" />
        </mxCell>
        <mxCell id="7a8b956e7d50b54d-131" value="W4" style="strokeWidth=1;fontStyle=0;html=1;" parent="1" vertex="1">
          <mxGeometry x="1120" y="459" width="120" height="20" as="geometry" />
        </mxCell>
        <mxCell id="7a8b956e7d50b54d-146" value="17" style="strokeWidth=1;fontStyle=0;html=1;" parent="1" vertex="1">
          <mxGeometry x="280" y="459" width="30" height="20" as="geometry" />
        </mxCell>
        <mxCell id="7a8b956e7d50b54d-147" value="18" style="strokeWidth=1;fontStyle=0;html=1;" parent="1" vertex="1">
          <mxGeometry x="310" y="459" width="30" height="20" as="geometry" />
        </mxCell>
        <mxCell id="7a8b956e7d50b54d-148" value="19" style="strokeWidth=1;fontStyle=0;html=1;" parent="1" vertex="1">
          <mxGeometry x="340" y="459" width="30" height="20" as="geometry" />
        </mxCell>
        <mxCell id="7a8b956e7d50b54d-149" value="20" style="strokeWidth=1;fontStyle=0;html=1;" parent="1" vertex="1">
          <mxGeometry x="370" y="459" width="30" height="20" as="geometry" />
        </mxCell>
        <mxCell id="7a8b956e7d50b54d-152" value="13" style="strokeWidth=1;fontStyle=0;html=1;" parent="1" vertex="1">
          <mxGeometry x="160" y="459" width="30" height="20" as="geometry" />
        </mxCell>
        <mxCell id="7a8b956e7d50b54d-153" value="14" style="strokeWidth=1;fontStyle=0;html=1;" parent="1" vertex="1">
          <mxGeometry x="190" y="459" width="30" height="20" as="geometry" />
        </mxCell>
        <mxCell id="7a8b956e7d50b54d-154" value="15" style="strokeWidth=1;fontStyle=0;html=1;" parent="1" vertex="1">
          <mxGeometry x="220" y="459" width="30" height="20" as="geometry" />
        </mxCell>
        <mxCell id="7a8b956e7d50b54d-155" value="16" style="strokeWidth=1;fontStyle=0;html=1;" parent="1" vertex="1">
          <mxGeometry x="250" y="459" width="30" height="20" as="geometry" />
        </mxCell>
        <mxCell id="7a8b956e7d50b54d-353" value="Erstellung von &lt;br&gt;Repository&amp;nbsp;" style="align=left;strokeColor=#6c8ebf;html=1;fillColor=#dae8fc;" parent="1" vertex="1">
          <mxGeometry x="160" y="479" width="120" height="41" as="geometry" />
        </mxCell>
        <mxCell id="7a8b956e7d50b54d-358" value="Analyse von &lt;br&gt;Anforderungs&lt;br&gt;-beschreibung" style="align=left;strokeColor=#6c8ebf;html=1;fillColor=#dae8fc;" parent="1" vertex="1">
          <mxGeometry x="190" y="520" width="120" height="41" as="geometry" />
        </mxCell>
        <mxCell id="7a8b956e7d50b54d-359" value="Erstellung von&lt;br&gt;&amp;nbsp;KlassenDiagramm" style="align=left;strokeColor=#6c8ebf;html=1;fillColor=#dae8fc;" parent="1" vertex="1">
          <mxGeometry x="250" y="599" width="120" height="41" as="geometry" />
        </mxCell>
        <mxCell id="7a8b956e7d50b54d-360" value="Entwurf von&lt;br&gt;&amp;nbsp;Paketstruktur&amp;nbsp;" style="align=left;strokeColor=#6c8ebf;html=1;fillColor=#dae8fc;" parent="1" vertex="1">
          <mxGeometry x="210" y="561" width="120" height="39" as="geometry" />
        </mxCell>
        <mxCell id="7a8b956e7d50b54d-361" value="Anpassung zu &lt;br&gt;neuer Anforderungs-&lt;br&gt;-beschreibung" style="align=left;strokeColor=#6c8ebf;html=1;fillColor=#dae8fc;" parent="1" vertex="1">
          <mxGeometry x="400" y="640" width="120" height="39" as="geometry" />
        </mxCell>
        <mxCell id="7a8b956e7d50b54d-362" value="Implementierung &lt;br&gt;der Funktion, .&lt;br&gt;csv Datei zu lesen" style="align=left;strokeColor=#6c8ebf;html=1;fillColor=#dae8fc;" parent="1" vertex="1">
          <mxGeometry x="470" y="680" width="110" height="40" as="geometry" />
        </mxCell>
        <mxCell id="7a8b956e7d50b54d-363" value="Beschreibung von &lt;br&gt;Test(JUnit-test)" style="align=left;strokeColor=#6c8ebf;html=1;fillColor=#dae8fc;" parent="1" vertex="1">
          <mxGeometry x="610" y="719" width="100" height="40" as="geometry" />
        </mxCell>
        <mxCell id="7a8b956e7d50b54d-364" value="Dokumentierung von &lt;br&gt;Anforderungsändelung&lt;br&gt;&amp;nbsp;und Test" style="align=left;strokeColor=#6c8ebf;html=1;fillColor=#dae8fc;" parent="1" vertex="1">
          <mxGeometry x="690" y="759" width="130" height="40" as="geometry" />
        </mxCell>
        <mxCell id="n8OrUDHv-N_zXcGvzrgn-2" value="readCSV Datei fixieren&lt;br&gt;(Hoangkim)" style="align=left;strokeColor=#6c8ebf;html=1;fillColor=#dae8fc;" parent="1" vertex="1">
          <mxGeometry x="760" y="799" width="130" height="41" as="geometry" />
        </mxCell>
        <mxCell id="n8OrUDHv-N_zXcGvzrgn-3" value="Test für readCSV&lt;br&gt;(Nakashima)" style="align=left;strokeColor=#6c8ebf;html=1;fillColor=#dae8fc;" parent="1" vertex="1">
          <mxGeometry x="790" y="840" width="100" height="40" as="geometry" />
        </mxCell>
        <mxCell id="n8OrUDHv-N_zXcGvzrgn-4" value="Update Klassen&lt;br&gt;Diagramm(Wan)" style="align=left;strokeColor=#6c8ebf;html=1;fillColor=#dae8fc;" parent="1" vertex="1">
          <mxGeometry x="895" y="880" width="90" height="40" as="geometry" />
        </mxCell>
        <mxCell id="n8OrUDHv-N_zXcGvzrgn-5" value="Idea für Pair, Group &lt;br&gt;Algorithmen, implement&lt;br&gt;(Shahwan)" style="align=left;strokeColor=#6c8ebf;html=1;fillColor=#dae8fc;" parent="1" vertex="1">
          <mxGeometry x="910" y="920" width="140" height="40" as="geometry" />
        </mxCell>
        <mxCell id="n8OrUDHv-N_zXcGvzrgn-7" value="refined Class and &lt;br&gt;new Diagramm&lt;br&gt;(Wan)&amp;nbsp;" style="align=left;strokeColor=#6c8ebf;html=1;fillColor=#dae8fc;" parent="1" vertex="1">
          <mxGeometry x="930" y="960" width="130" height="50" as="geometry" />
        </mxCell>
        <mxCell id="n8OrUDHv-N_zXcGvzrgn-8" value="Implement Algo Pair(Wan)&lt;br&gt;Group(Hoangkim)" style="align=left;strokeColor=#6c8ebf;html=1;fillColor=#dae8fc;" parent="1" vertex="1">
          <mxGeometry x="980" y="1010" width="140" height="40" as="geometry" />
        </mxCell>
        <mxCell id="n8OrUDHv-N_zXcGvzrgn-9" value="add new TestClass für &lt;br&gt;Algorithmen(Nakashima)" style="align=left;strokeColor=#6c8ebf;html=1;fillColor=#dae8fc;" parent="1" vertex="1">
          <mxGeometry x="1020" y="1050" width="140" height="30" as="geometry" />
        </mxCell>
        <mxCell id="n8OrUDHv-N_zXcGvzrgn-10" value="&amp;nbsp;tut3" style="align=left;strokeColor=#b85450;html=1;fillColor=#f8cecc;" parent="1" vertex="1">
          <mxGeometry x="890" y="860" width="30" height="20" as="geometry" />
        </mxCell>
        <mxCell id="n8OrUDHv-N_zXcGvzrgn-12" value="TestFall Dokumentation&lt;br&gt;(Nakashima, Hoangkim)" style="align=left;strokeColor=#6c8ebf;html=1;fillColor=#dae8fc;" parent="1" vertex="1">
          <mxGeometry x="1080" y="1080" width="140" height="30" as="geometry" />
        </mxCell>
        <mxCell id="n8OrUDHv-N_zXcGvzrgn-13" value="Fix Bug, testing Algorithmen &lt;br&gt;(Nakashima, hoangkim, Wan)" style="align=left;strokeColor=#6c8ebf;html=1;fillColor=#dae8fc;" parent="1" vertex="1">
          <mxGeometry x="1090" y="1110" width="160" height="40" as="geometry" />
        </mxCell>
        <mxCell id="TGBILPlFUVwqLmFoFhXD-195" value="Mar" style="strokeWidth=1;fontStyle=0;html=1;" vertex="1" parent="1">
          <mxGeometry x="1480" y="439" width="120" height="20" as="geometry" />
        </mxCell>
        <mxCell id="TGBILPlFUVwqLmFoFhXD-196" value="Apr" style="strokeWidth=1;fontStyle=0;html=1;" vertex="1" parent="1">
          <mxGeometry x="1600" y="439" width="120" height="20" as="geometry" />
        </mxCell>
        <mxCell id="TGBILPlFUVwqLmFoFhXD-197" value="July" style="strokeWidth=1;fontStyle=0;html=1;" vertex="1" parent="1">
          <mxGeometry x="1840" y="439" width="480" height="20" as="geometry" />
        </mxCell>
        <mxCell id="TGBILPlFUVwqLmFoFhXD-198" value="Feb" style="strokeWidth=1;fontStyle=0;html=1;" vertex="1" parent="1">
          <mxGeometry x="1360" y="439" width="120" height="20" as="geometry" />
        </mxCell>
        <mxCell id="TGBILPlFUVwqLmFoFhXD-199" value="" style="align=left;strokeColor=#CCCCCC;html=1;" vertex="1" parent="1">
          <mxGeometry x="1250" y="1150" width="120" height="20" as="geometry" />
        </mxCell>
        <mxCell id="TGBILPlFUVwqLmFoFhXD-200" value="June" style="strokeWidth=1;fontStyle=0;html=1;" vertex="1" parent="1">
          <mxGeometry x="1240" y="439" width="600" height="20" as="geometry" />
        </mxCell>
        <mxCell id="TGBILPlFUVwqLmFoFhXD-201" value="" style="align=left;strokeColor=#CCCCCC;html=1;verticalAlign=middle;" vertex="1" parent="1">
          <mxGeometry x="1250" y="1170" width="120" height="20" as="geometry" />
        </mxCell>
        <mxCell id="TGBILPlFUVwqLmFoFhXD-202" value="" style="align=left;strokeColor=#CCCCCC;html=1;" vertex="1" parent="1">
          <mxGeometry x="1250" y="1190" width="120" height="20" as="geometry" />
        </mxCell>
        <mxCell id="TGBILPlFUVwqLmFoFhXD-203" value="" style="align=left;strokeColor=#CCCCCC;html=1;" vertex="1" parent="1">
          <mxGeometry x="1250" y="1210" width="120" height="20" as="geometry" />
        </mxCell>
        <mxCell id="TGBILPlFUVwqLmFoFhXD-204" value="" style="align=left;strokeColor=#CCCCCC;html=1;" vertex="1" parent="1">
          <mxGeometry x="1250" y="1230" width="120" height="20" as="geometry" />
        </mxCell>
        <mxCell id="TGBILPlFUVwqLmFoFhXD-205" value="" style="align=left;strokeColor=#CCCCCC;html=1;" vertex="1" parent="1">
          <mxGeometry x="1250" y="1250" width="120" height="20" as="geometry" />
        </mxCell>
        <mxCell id="TGBILPlFUVwqLmFoFhXD-217" value="" style="align=left;strokeColor=#CCCCCC;html=1;" vertex="1" parent="1">
          <mxGeometry x="1390" y="459" width="120" height="20" as="geometry" />
        </mxCell>
        <mxCell id="TGBILPlFUVwqLmFoFhXD-224" value="" style="align=left;strokeColor=#CCCCCC;html=1;" vertex="1" parent="1">
          <mxGeometry x="1370" y="1330" width="120" height="20" as="geometry" />
        </mxCell>
        <mxCell id="TGBILPlFUVwqLmFoFhXD-225" value="" style="align=left;strokeColor=#CCCCCC;html=1;" vertex="1" parent="1">
          <mxGeometry x="1370" y="1370" width="120" height="20" as="geometry" />
        </mxCell>
        <mxCell id="TGBILPlFUVwqLmFoFhXD-236" value="" style="align=left;strokeColor=#CCCCCC;html=1;" vertex="1" parent="1">
          <mxGeometry x="1490" y="1270" width="120" height="20" as="geometry" />
        </mxCell>
        <mxCell id="TGBILPlFUVwqLmFoFhXD-237" value="" style="align=left;strokeColor=#CCCCCC;html=1;" vertex="1" parent="1">
          <mxGeometry x="1490" y="1291" width="120" height="20" as="geometry" />
        </mxCell>
        <mxCell id="TGBILPlFUVwqLmFoFhXD-238" value="" style="align=left;strokeColor=#CCCCCC;html=1;" vertex="1" parent="1">
          <mxGeometry x="1490" y="1330" width="120" height="20" as="geometry" />
        </mxCell>
        <mxCell id="TGBILPlFUVwqLmFoFhXD-239" value="" style="align=left;strokeColor=#CCCCCC;html=1;" vertex="1" parent="1">
          <mxGeometry x="1490" y="1350" width="120" height="20" as="geometry" />
        </mxCell>
        <mxCell id="TGBILPlFUVwqLmFoFhXD-240" value="" style="align=left;strokeColor=#CCCCCC;html=1;" vertex="1" parent="1">
          <mxGeometry x="1490" y="1370" width="120" height="20" as="geometry" />
        </mxCell>
        <mxCell id="TGBILPlFUVwqLmFoFhXD-243" value="" style="align=left;strokeColor=#CCCCCC;html=1;" vertex="1" parent="1">
          <mxGeometry x="1490" y="1351" width="120" height="20" as="geometry" />
        </mxCell>
        <mxCell id="TGBILPlFUVwqLmFoFhXD-251" value="" style="align=left;strokeColor=#CCCCCC;html=1;" vertex="1" parent="1">
          <mxGeometry x="1610" y="1270" width="120" height="20" as="geometry" />
        </mxCell>
        <mxCell id="TGBILPlFUVwqLmFoFhXD-252" value="" style="align=left;strokeColor=#CCCCCC;html=1;" vertex="1" parent="1">
          <mxGeometry x="1610" y="1290" width="120" height="20" as="geometry" />
        </mxCell>
        <mxCell id="TGBILPlFUVwqLmFoFhXD-253" value="" style="align=left;strokeColor=#CCCCCC;html=1;" vertex="1" parent="1">
          <mxGeometry x="1610" y="1310" width="120" height="20" as="geometry" />
        </mxCell>
        <mxCell id="TGBILPlFUVwqLmFoFhXD-254" value="" style="align=left;strokeColor=#CCCCCC;html=1;" vertex="1" parent="1">
          <mxGeometry x="1610" y="1330" width="120" height="20" as="geometry" />
        </mxCell>
        <mxCell id="TGBILPlFUVwqLmFoFhXD-255" value="" style="align=left;strokeColor=#CCCCCC;html=1;" vertex="1" parent="1">
          <mxGeometry x="1610" y="1390" width="120" height="20" as="geometry" />
        </mxCell>
        <mxCell id="TGBILPlFUVwqLmFoFhXD-256" value="" style="align=left;strokeColor=#CCCCCC;html=1;" vertex="1" parent="1">
          <mxGeometry x="1610" y="1410" width="120" height="20" as="geometry" />
        </mxCell>
        <mxCell id="TGBILPlFUVwqLmFoFhXD-257" value="" style="align=left;strokeColor=#CCCCCC;html=1;" vertex="1" parent="1">
          <mxGeometry x="1610" y="1430" width="120" height="20" as="geometry" />
        </mxCell>
        <mxCell id="TGBILPlFUVwqLmFoFhXD-258" value="" style="align=left;strokeColor=#CCCCCC;html=1;" vertex="1" parent="1">
          <mxGeometry x="1610" y="1450" width="120" height="20" as="geometry" />
        </mxCell>
        <mxCell id="TGBILPlFUVwqLmFoFhXD-354" value="W3" style="strokeWidth=1;fontStyle=0;html=1;" vertex="1" parent="1">
          <mxGeometry x="1480" y="459" width="120" height="20" as="geometry" />
        </mxCell>
        <mxCell id="TGBILPlFUVwqLmFoFhXD-355" value="W4" style="strokeWidth=1;fontStyle=0;html=1;" vertex="1" parent="1">
          <mxGeometry x="1600" y="459" width="120" height="20" as="geometry" />
        </mxCell>
        <mxCell id="TGBILPlFUVwqLmFoFhXD-356" value="W5" style="strokeWidth=1;fontStyle=0;html=1;" vertex="1" parent="1">
          <mxGeometry x="1720" y="459" width="120" height="20" as="geometry" />
        </mxCell>
        <mxCell id="TGBILPlFUVwqLmFoFhXD-357" value="W1" style="strokeWidth=1;fontStyle=0;html=1;" vertex="1" parent="1">
          <mxGeometry x="1840" y="459" width="120" height="20" as="geometry" />
        </mxCell>
        <mxCell id="TGBILPlFUVwqLmFoFhXD-358" value="W2" style="strokeWidth=1;fontStyle=0;html=1;" vertex="1" parent="1">
          <mxGeometry x="1960" y="459" width="140" height="20" as="geometry" />
        </mxCell>
        <mxCell id="TGBILPlFUVwqLmFoFhXD-359" value="W3" style="strokeWidth=1;fontStyle=0;html=1;" vertex="1" parent="1">
          <mxGeometry x="2100" y="459" width="100" height="20" as="geometry" />
        </mxCell>
        <mxCell id="TGBILPlFUVwqLmFoFhXD-360" value="W4" style="strokeWidth=1;fontStyle=0;html=1;" vertex="1" parent="1">
          <mxGeometry x="2200" y="459" width="120" height="20" as="geometry" />
        </mxCell>
        <mxCell id="TGBILPlFUVwqLmFoFhXD-361" value="W2" style="strokeWidth=1;fontStyle=0;html=1;" vertex="1" parent="1">
          <mxGeometry x="1360" y="459" width="120" height="20" as="geometry" />
        </mxCell>
        <mxCell id="TGBILPlFUVwqLmFoFhXD-362" value="W1" style="strokeWidth=1;fontStyle=0;html=1;" vertex="1" parent="1">
          <mxGeometry x="1240" y="459" width="120" height="20" as="geometry" />
        </mxCell>
        <mxCell id="TGBILPlFUVwqLmFoFhXD-363" value="Clean up Testcode &lt;br&gt;: Nakashima" style="align=left;strokeColor=#6c8ebf;html=1;fillColor=#dae8fc;" vertex="1" parent="1">
          <mxGeometry x="1250" y="1150" width="120" height="41" as="geometry" />
        </mxCell>
        <mxCell id="TGBILPlFUVwqLmFoFhXD-364" value="Change PackageName &lt;br&gt;and ClassDiagramm: Wan&amp;nbsp;" style="align=left;strokeColor=#6c8ebf;html=1;fillColor=#dae8fc;" vertex="1" parent="1">
          <mxGeometry x="1250" y="1190" width="120" height="41" as="geometry" />
        </mxCell>
        <mxCell id="TGBILPlFUVwqLmFoFhXD-365" value="Implement Algorithm of makeGroupList &lt;br&gt;for three course : Wan, Long" style="align=left;strokeColor=#6c8ebf;html=1;fillColor=#dae8fc;" vertex="1" parent="1">
          <mxGeometry x="1370" y="1270" width="240" height="41" as="geometry" />
        </mxCell>
        <mxCell id="TGBILPlFUVwqLmFoFhXD-366" value="Implement Algo&lt;br&gt;(Listmanagement)&lt;br&gt;: Long,Saif" style="align=left;strokeColor=#6c8ebf;html=1;fillColor=#dae8fc;" vertex="1" parent="1">
          <mxGeometry x="1250" y="1231" width="120" height="39" as="geometry" />
        </mxCell>
        <mxCell id="TGBILPlFUVwqLmFoFhXD-367" value="Fix Problem of &lt;br&gt;makeGroupList &lt;br&gt;: Wan,Long" style="align=left;strokeColor=#6c8ebf;html=1;fillColor=#dae8fc;" vertex="1" parent="1">
          <mxGeometry x="1610" y="1349" width="120" height="61" as="geometry" />
        </mxCell>
        <mxCell id="TGBILPlFUVwqLmFoFhXD-368" value="Planing how to implement GUI &lt;br&gt;: Nakashima, Saif" style="align=left;strokeColor=#6c8ebf;html=1;fillColor=#dae8fc;" vertex="1" parent="1">
          <mxGeometry x="1370" y="1310" width="240" height="40" as="geometry" />
        </mxCell>
        <mxCell id="TGBILPlFUVwqLmFoFhXD-369" value="Implement GUI&lt;br&gt;: Saif, Nakashima" style="align=left;strokeColor=#6c8ebf;html=1;fillColor=#dae8fc;" vertex="1" parent="1">
          <mxGeometry x="1610" y="1410" width="120" height="40" as="geometry" />
        </mxCell>
        <mxCell id="TGBILPlFUVwqLmFoFhXD-370" value="check all methods in class Listmanagement&lt;br&gt;:Long" style="align=left;strokeColor=#6c8ebf;html=1;fillColor=#dae8fc;" vertex="1" parent="1">
          <mxGeometry x="1730" y="1510" width="240" height="41" as="geometry" />
        </mxCell>
        <mxCell id="TGBILPlFUVwqLmFoFhXD-371" value="Fix problem of &lt;br&gt;Kitchen and CokkingPair &lt;br&gt;NULL ; Wan" style="align=left;strokeColor=#6c8ebf;html=1;fillColor=#dae8fc;" vertex="1" parent="1">
          <mxGeometry x="1730" y="1450" width="120" height="61" as="geometry" />
        </mxCell>
        <mxCell id="TGBILPlFUVwqLmFoFhXD-372" value="GUI cancel for Participant and Pair : Saif" style="align=left;strokeColor=#6c8ebf;html=1;fillColor=#dae8fc;" vertex="1" parent="1">
          <mxGeometry x="1730" y="1551" width="240" height="40" as="geometry" />
        </mxCell>
        <mxCell id="TGBILPlFUVwqLmFoFhXD-373" value="Update all Test for newest methods : Nakashima" style="align=left;strokeColor=#6c8ebf;html=1;fillColor=#dae8fc;" vertex="1" parent="1">
          <mxGeometry x="1730" y="1591" width="240" height="40" as="geometry" />
        </mxCell>
        <mxCell id="TGBILPlFUVwqLmFoFhXD-374" value="Presantation" style="align=left;strokeColor=#b85450;html=1;fillColor=#f8cecc;" vertex="1" parent="1">
          <mxGeometry x="1970" y="1671" width="80" height="50" as="geometry" />
        </mxCell>
        <mxCell id="TGBILPlFUVwqLmFoFhXD-375" value="Implement json : Wan, Saif, Nakashima" style="align=left;strokeColor=#6c8ebf;html=1;fillColor=#dae8fc;" vertex="1" parent="1">
          <mxGeometry x="1370" y="1350" width="240" height="41" as="geometry" />
        </mxCell>
        <mxCell id="TGBILPlFUVwqLmFoFhXD-376" value="PseudeCode : Long" style="align=left;strokeColor=#6c8ebf;html=1;fillColor=#dae8fc;" vertex="1" parent="1">
          <mxGeometry x="1730" y="1631" width="240" height="40" as="geometry" />
        </mxCell>
      </root>
    </mxGraphModel>
  </diagram>
</mxfile>
